<svg xmlns="http://www.w3.org/2000/svg" xmlns:xlink="http://www.w3.org/1999/xlink" fill="#000000" height="512" width="512" version="1.1" xml:space="preserve"><rect id="backgroundrect" width="100%" height="100%" x="0" y="0" fill="none" stroke="none"/>

<g class="currentLayer" style=""><title>Layer 1</title><g id="svg_1" class="selected" fill-opacity="1" fill="#ffffff">
	<g id="svg_2" fill="#ffffff">
		<g id="svg_3" fill="#ffffff">
			<path d="M256,0C114.618,0,0,114.618,0,256s114.618,256,256,256s256-114.618,256-256S397.382,0,256,0z M256,469.333     c-117.818,0-213.333-95.515-213.333-213.333S138.182,42.667,256,42.667S469.333,138.182,469.333,256S373.818,469.333,256,469.333     z" id="svg_4" fill="#ffffff"/>
			<path d="M383.996,234.667H277.333V128c0-11.782-9.551-21.333-21.333-21.333s-21.333,9.551-21.333,21.333v106.667H128.038     c-11.782,0-21.333,9.551-21.333,21.333s9.551,21.333,21.333,21.333h106.628V384c0,11.782,9.551,21.333,21.333,21.333     s21.333-9.551,21.333-21.333V277.333h106.662c11.782,0,21.333-9.551,21.333-21.333S395.778,234.667,383.996,234.667z" id="svg_5" fill="#ffffff"/>
		</g>
	</g>
</g></g></svg>