<svg xmlns="http://www.w3.org/2000/svg" xmlns:xlink="http://www.w3.org/1999/xlink" version="1.1" style="enable-background:new 0 0 512 512;" xml:space="preserve" width="512" height="512"><rect id="backgroundrect" width="100%" height="100%" x="0" y="0" fill="none" stroke="none"/>




















<g class="currentLayer" style=""><title>Layer 1</title><g id="svg_1" class="" fill-opacity="1" fill="#b59f5b">
	<g id="svg_2" fill="#b59f5b">
		<rect x="121.08100128173828" y="183.42100524902344" width="114.16200256347656" height="89.94599914550781" id="svg_3" fill="#b59f5b"/>
	</g>
</g><g id="svg_4" class="" fill-opacity="1" fill="#b59f5b">
	<g id="svg_5" fill="#b59f5b">
		<path d="M122.964,141.904h112.279V31.069C178.014,39.943,132.568,84.916,122.964,141.904z" id="svg_6" fill="#b59f5b"/>
	</g>
</g><g id="svg_7" class="" fill-opacity="1" fill="#b59f5b">
	<g id="svg_8" fill="#b59f5b">
		<path d="M276.757,31.069v110.836h112.279C379.432,84.916,333.986,39.943,276.757,31.069z" id="svg_9" fill="#b59f5b"/>
	</g>
</g><g id="svg_10" class="" fill-opacity="1" fill="#b59f5b">
	<g id="svg_11" fill="#b59f5b">
		<rect x="276.7569885253906" y="183.42100524902344" width="114.16200256347656" height="89.94599914550781" id="svg_12" fill="#b59f5b"/>
	</g>
</g><g id="svg_13" class="selected" fill-opacity="1" fill="#b59f5b">
	<g id="svg_14" fill="#b59f5b">
		<path d="M491.243,314.877h-27.676h-31.135h-20.757h-20.757h-10.378h-83.027h-20.757H256h-20.757h-20.757h-83.027h-10.378h-20.757    H79.568H48.432H20.757C9.295,314.877,0,324.171,0,335.634c0,11.463,9.295,20.757,20.757,20.757h6.919v103.784    c0,11.463,9.295,20.757,20.757,20.757h83.027h83.027h83.027h83.027h83.027c11.465,0,20.757-9.293,20.757-20.757V356.391h6.919    c11.465,0,20.757-9.293,20.757-20.757C512,324.171,502.708,314.877,491.243,314.877z M110.703,371.958v20.757v46.703H69.189    v-83.027h10.378h20.757h10.378V371.958z M193.73,371.958v20.757v46.703h-41.513v-46.703v-20.757v-15.568h41.513V371.958z     M276.757,371.958v20.757v46.703h-41.514v-46.703v-20.757v-15.568H256h20.757V371.958z M359.784,371.958v20.757v46.703H318.27    v-46.703v-20.757v-15.568h41.514V371.958z M442.811,439.418h-41.514v-46.703v-20.757v-15.568h10.378h20.757h10.378V439.418z" id="svg_15" fill="#b59f5b"/>
	</g>
</g><g id="svg_16">
</g><g id="svg_17">
</g><g id="svg_18">
</g><g id="svg_19">
</g><g id="svg_20">
</g><g id="svg_21">
</g><g id="svg_22">
</g><g id="svg_23">
</g><g id="svg_24">
</g><g id="svg_25">
</g><g id="svg_26">
</g><g id="svg_27">
</g><g id="svg_28">
</g><g id="svg_29">
</g><g id="svg_30">
</g></g></svg>