<svg xmlns="http://www.w3.org/2000/svg" width="512" height="512"><rect id="backgroundrect" width="100%" height="100%" x="0" y="0" fill="none" stroke="none"/><title>ionicons-v5-g</title><g class="currentLayer" style=""><title>Layer 1</title><path d="M432,224V96a16,16,0,0,0-16-16H96A16,16,0,0,0,80,96V224a48,48,0,0,0-48,48V432H68V400H444v32h36V272A48,48,0,0,0,432,224Zm-192,0H120V192a16,16,0,0,1,16-16h88a16,16,0,0,1,16,16Zm32-32a16,16,0,0,1,16-16h88a16,16,0,0,1,16,16v32H272Z" id="svg_1" class="selected" fill-opacity="1" fill="#b59f5b"/></g></svg>