<svg xmlns="http://www.w3.org/2000/svg" width="516.3478260080847" height="518.5217390121268" style=""><rect id="backgroundrect" width="100%" height="100%" x="0" y="0" fill="none" stroke="none"/><g class="currentLayer" style=""><title>Layer 1</title><rect height="512" rx="64" ry="64" width="512" fill="#b59f5b" id="svg_1" class="selected" y="3.797468423843384" x="2.5316457748413086" fill-opacity="1"/><path d="M421.80685494923165,146.2951764573209 v239.42397807228872 c0,13.5673587574297 -8.70382694433888,23.942397807228865 -20.08575448693587,23.942397807228865 H381.63534597536 V192.37631143696734 l-120.51452692161526,103.15981135208011 l-120.51452692161526,-103.15981135208011 V409.6615523368385 H120.52053764519367 C109.1252195996054,409.6615523368385 100.4347831582578,399.28651328703927 100.4347831582578,385.7191545296096 v-239.42397807228872 c0,-6.78367937871485 2.1692614845890783,-12.769278830522067 5.771306789246248,-17.046987238746958 C109.80813525216122,124.90663441619645 114.8429643768865,122.35277865009203 120.52053764519367,122.35277865009203 H127.21578914083895 l133.90502991290577,115.72158940160622 L395.0258489666505,122.35277865009203 h6.695251495645298 c5.690963771298499,0 10.712402393032466,2.5857789631807235 14.314447697689625,6.895410568481918 c3.6154358076484567,4.277708408224891 5.771306789246248,10.263307860032116 5.771306789246248,17.046987238746958 z" class="" id="svg_17" fill-opacity="1" fill="#ffffff"/></g></svg>