<svg xmlns="http://www.w3.org/2000/svg" width="64.62068939208984" height="87.51724243164062" fill="none" style=""><rect id="backgroundrect" width="100%" height="100%" x="0" y="0" fill="none" stroke="none" class="" style=""/>



<g class="currentLayer" style=""><title>Layer 1</title><path d="M13,24.266457319259644 H8.8 C7.11984,24.266457319259644 6.27976,24.266457319259644 5.6380300000000005,24.593437319259642 C5.07354,24.881057319259643 4.6146,25.339997319259645 4.32698,25.904487319259644 C4,26.546217319259643 4,27.386297319259644 4,29.06645731925964 V35.466457319259646 C4,37.146657319259646 4,37.98665731925964 4.32698,38.62845731925964 C4.6146,39.19295731925965 5.07354,39.65185731925965 5.6380300000000005,39.939457319259645 C6.27976,40.266457319259644 7.11984,40.266457319259644 8.8,40.266457319259644 H15.2 C16.8802,40.266457319259644 17.7202,40.266457319259644 18.362,39.939457319259645 C18.9265,39.65185731925965 19.3854,39.19295731925965 19.673000000000002,38.62845731925964 C20,37.98665731925964 20,37.146657319259646 20,35.466457319259646 V31.266457319259644 " stroke="#c1caca" stroke-width="2" stroke-linecap="round" stroke-linejoin="round" id="svg_1" class="" stroke-opacity="1"/><path d="M53,24.266457319259644 H48.8 C47.119839999999996,24.266457319259644 46.279759999999996,24.266457319259644 45.63803,24.593437319259642 C45.07354,24.881057319259646 44.6146,25.339997319259645 44.32698,25.904487319259644 C44,26.54621731925964 44,27.38629731925964 44,29.06645731925964 V35.466457319259646 C44,37.146657319259646 44,37.98665731925964 44.32698,38.62845731925964 C44.6146,39.19295731925965 45.07354,39.65185731925965 45.63803,39.939457319259645 C46.279759999999996,40.266457319259644 47.119839999999996,40.266457319259644 48.8,40.266457319259644 H55.2 C56.8802,40.266457319259644 57.7202,40.266457319259644 58.361999999999995,39.939457319259645 C58.926500000000004,39.65185731925965 59.385400000000004,39.19295731925965 59.673,38.62845731925964 C60,37.98665731925964 60,37.146657319259646 60,35.466457319259646 V31.266457319259644 " stroke="#c1caca" stroke-width="2" stroke-linecap="round" stroke-linejoin="round" class="" id="svg_5" stroke-opacity="1"/><path d="M4,36.266457319259644 L8.29289,31.97355731925964 C8.68342,31.58305731925965 9.31658,31.58305731925965 9.70711,31.97355731925964 L13,35.266457319259644 M13,35.266457319259644 L15.7929,32.47355731925964 C16.1834,32.083057319259645 16.8166,32.083057319259645 17.2071,32.47355731925964 L20,35.266457319259644 M13,35.266457319259644 L15.25,37.516457319259644 " stroke="#c1caca" stroke-width="2" stroke-linecap="round" stroke-linejoin="round" id="svg_2" class="" stroke-opacity="1"/><path d="M44,36.26645785570145 L48.29289,31.973557855701443 C48.68342,31.583057855701448 49.31658,31.583057855701448 49.70711,31.973557855701443 L53,35.26645785570145 M53,35.26645785570145 L55.7929,32.47355785570144 C56.1834,32.08305785570145 56.8166,32.08305785570145 57.2071,32.47355785570144 L60,35.26645785570145 M53,35.26645785570145 L55.25,37.51645785570145 " stroke="#c1caca" stroke-width="2" stroke-linecap="round" stroke-linejoin="round" class="" id="svg_9" stroke-opacity="1"/><path d="M17,23.266457319259644 L19,25.266457319259644 M21,27.266457319259644 L19,25.266457319259644 M19,25.266457319259644 L21,23.266457319259644 M19,25.266457319259644 L17,27.266457319259644 " stroke="#c1caca" stroke-width="2" stroke-linecap="round" stroke-linejoin="round" id="svg_3" class="" stroke-opacity="1"/><path d="M57,23.266457319259644 L59,25.266457319259644 M61,27.266457319259644 L59,25.266457319259644 M59,25.266457319259644 L61,23.266457319259644 M59,25.266457319259644 L57,27.266457319259644 " stroke="#c1caca" stroke-width="2" stroke-linecap="round" stroke-linejoin="round" class="" id="svg_7" stroke-opacity="1"/><path d="M26.363636404275894,51.36363613605499 C24.706786404275896,51.36363613605499 23.363636404275894,52.706786136054994 23.363636404275894,54.36363613605499 V62.36363613605499 C23.363636404275894,64.020536136055 24.706786404275896,65.36363613605499 26.363636404275894,65.36363613605499 H35.363636404275894 C36.71633640427589,65.36363613605499 37.859836404275896,64.46843613605499 38.234136404275894,63.23813613605499 M38.363636404275894,58.36363613605499 L41.99793640427589,54.72932613605499 C42.426336404275894,54.30094613605499 42.64053640427589,54.086756136054994 42.82443640427589,54.07228613605499 C42.983936404275894,54.05972613605499 43.13993640427589,54.12431613605499 43.243836404275896,54.24601613605499 C43.363636404275894,54.38628613605499 43.363636404275894,54.68919613605499 43.363636404275894,55.295006136054994 V61.432236136054996 C43.363636404275894,62.038036136054984 43.363636404275894,62.341036136054996 43.243836404275896,62.48123613605499 C43.13993640427589,62.60293613605499 42.983936404275894,62.66753613605499 42.82443640427589,62.65503613605499 C42.64053640427589,62.64053613605499 42.426336404275894,62.426336136055 41.99793640427589,61.99793613605499 L38.363636404275894,58.36363613605499 zM38.363636404275894,58.36363613605499 V56.16363613605499 C38.363636404275894,54.48347613605499 38.363636404275894,53.64339613605499 38.036636404275896,53.00166613605499 C37.7490364042759,52.437176136054994 37.2901364042759,51.97823613605499 36.725636404275896,51.69061613605499 C36.08383640427589,51.36363613605499 35.243836404275896,51.36363613605499 33.5636364042759,51.36363613605499 H30.863636404275894 M23.363636404275894,48.36363613605499 L43.363636404275894,68.36363613605499 " stroke="#c1caca" stroke-width="2" stroke-linecap="round" stroke-linejoin="round" class="" stroke-opacity="1" id="svg_10"/></g></svg>