<svg xmlns="http://www.w3.org/2000/svg" fill="#000000" width="64" height="64" data-name="Flat Line" style=""><rect id="backgroundrect" width="100%" height="100%" x="0" y="0" fill="none" stroke="none" class="selected" style=""/><g class="currentLayer" style=""><title>Layer 1</title><polyline id="primary" points="9.350877225399017,24.38596534729004 12.350877225399017,21.38596534729004 15.350877225399017,24.38596534729004 " style="fill: none; stroke-linecap: round; stroke-linejoin: round; stroke-width: 2;" class="" stroke-opacity="1" stroke="#c1caca"/><polyline id="primary-2" data-name="primary" points="9.350877225399017,29.38596534729004 12.350877225399017,26.38596534729004 15.350877225399017,29.38596534729004 " style="fill: none; stroke-linecap: round; stroke-linejoin: round; stroke-width: 2;" class="" stroke-opacity="1" stroke="#c1caca"/><polyline data-name="primary" points="29.350877225399017,49.38596534729004 32.35087722539902,46.38596534729004 35.35087722539902,49.38596534729004 " style="fill: none; stroke-linecap: round; stroke-linejoin: round; stroke-width: 2;" class="" stroke-opacity="1" stroke="#c1caca" id="svg_3"/><polyline data-name="primary" points="29.350877225399017,44.18048667907715 32.35087722539902,41.18048667907715 35.35087722539902,44.18048667907715 " style="fill: none; stroke-linecap: round; stroke-linejoin: round; stroke-width: 2;" class="" stroke-opacity="1" stroke="#c1caca" id="svg_2"/><polyline data-name="primary" points="49.624848783016205,24.18048858642578 52.624848783016205,21.18048858642578 55.624848783016205,24.18048858642578 " style="fill: none; stroke-linecap: round; stroke-linejoin: round; stroke-width: 2;" class="" stroke-opacity="1" stroke="#c1caca" id="svg_12"/><polyline data-name="primary" points="49.624848783016205,29.385967254638672 52.624848783016205,26.385967254638672 55.624848783016205,29.385967254638672 " style="fill: none; stroke-linecap: round; stroke-linejoin: round; stroke-width: 2;" class="" stroke-opacity="1" stroke="#c1caca" id="svg_11"/><line data-name="primary" x1="32.35087722539902" y1="46.38596534729004" x2="32.35087722539902" y2="55.38596534729004" style="fill: none; stroke-linecap: round; stroke-linejoin: round; stroke-width: 2;" class="" stroke-opacity="1" stroke="#c1caca" id="svg_6"/><line data-name="primary" x1="52.624848783016205" y1="26.38597011566162" x2="52.624848783016205" y2="35.385969161987305" style="fill: none; stroke-linecap: round; stroke-linejoin: round; stroke-width: 2;" class="" stroke-opacity="1" stroke="#c1caca" id="svg_10"/><line id="primary-3" data-name="primary" x1="12.350877225399017" y1="26.38596534729004" x2="12.350877225399017" y2="35.38596534729004" style="fill: none; stroke-linecap: round; stroke-linejoin: round; stroke-width: 2;" class="" stroke-opacity="1" stroke="#c1caca"/><line data-name="primary" x1="92" y1="92" x2="92" y2="101" style="fill: none; stroke-linecap: round; stroke-linejoin: round; stroke-width: 2;" class="" stroke-opacity="1" stroke="#c1caca" id="svg_1"/><path data-name="primary" d="M25.35087740421295,47.31644648313522 H24.35087740421295 a1,1 0 0 1 -1,-1 V37.31644648313522 A1,1 0 0 1 24.35087740421295,36.31644648313522 H40.35087740421295 a1,1 0 0 1 1,1 v9 a1,1 0 0 1 -1,1 H39.35087740421295 " style="fill: none; stroke-linecap: round; stroke-linejoin: round; stroke-width: 2;" class="" stroke-opacity="1" stroke="#c1caca" id="svg_4"/><path id="primary-4" data-name="primary" d="M5.350877404212952,27.316446483135223 H4.350877404212952 a1,1 0 0 1 -1,-1 V17.316446483135223 A1,1 0 0 1 4.350877404212952,16.316446483135223 H20.35087740421295 a1,1 0 0 1 1,1 v9 a1,1 0 0 1 -1,1 H19.35087740421295 " style="fill: none; stroke-linecap: round; stroke-linejoin: round; stroke-width: 2;" class="" stroke-opacity="1" stroke="#c1caca"/><path data-name="primary" d="M45.35087525844574,27.590420842170715 H44.35087525844574 a1,1 0 0 1 -1,-1 V17.590420842170715 A1,1 0 0 1 44.35087525844574,16.590420842170715 H60.35087525844574 a1,1 0 0 1 1,1 v9 a1,1 0 0 1 -1,1 H59.35087525844574 " style="fill: none; stroke-linecap: round; stroke-linejoin: round; stroke-width: 2;" class="" stroke-opacity="1" stroke="#c1caca" id="svg_8"/></g></svg>