<svg xmlns="http://www.w3.org/2000/svg" xmlns:xlink="http://www.w3.org/1999/xlink" version="1.1" style="enable-background:new 0 0 60 60;" xml:space="preserve" width="60" height="60"><rect id="backgroundrect" width="100%" height="100%" x="0" y="0" fill="none" stroke="none"/>
















<g class="currentLayer" style=""><title>Layer 1</title><path d="M57.317,60h-1.024c-1.104,0-2-0.896-2-2s0.896-2,2-2h0.994c1.104,0,2.016,0.896,2.016,2S58.422,60,57.317,60z M50.326,60  h-0.994c-1.104,0-2-0.896-2-2s0.896-2,2-2h0.994c1.104,0,2,0.896,2,2S51.431,60,50.326,60z M43.365,60h-0.994c-1.104,0-2-0.896-2-2  s0.896-2,2-2h0.994c1.104,0,2,0.896,2,2S44.47,60,43.365,60z M36.404,60H35.41c-1.104,0-2-0.896-2-2s0.896-2,2-2h0.994  c1.104,0,2,0.896,2,2S37.509,60,36.404,60z M29.443,60h-0.994c-1.104,0-2-0.896-2-2s0.896-2,2-2h0.994c1.104,0,2,0.896,2,2  S30.548,60,29.443,60z M22.482,60h-0.994c-1.104,0-2-0.896-2-2s0.896-2,2-2h0.994c1.104,0,2,0.896,2,2S23.587,60,22.482,60z   M15.522,60h-0.995c-1.104,0-2-0.896-2-2s0.896-2,2-2h0.995c1.104,0,2,0.896,2,2S16.627,60,15.522,60z M8.562,60H7.566  c-1.104,0-2-0.896-2-2s0.896-2,2-2h0.995c1.104,0,2,0.896,2,2S9.666,60,8.562,60z M2,59.291c-1.104,0-2-0.892-2-1.996V56.3  c0-1.104,0.896-2,2-2s2,0.896,2,2v0.987C4,58.392,3.104,59.291,2,59.291z M58,54.41c-1.104,0-2-0.896-2-2v-0.994  c0-1.104,0.896-2,2-2s2,0.896,2,2v0.994C60,53.515,59.104,54.41,58,54.41z M2,52.334c-1.104,0-2-0.896-2-2V49.34  c0-1.104,0.896-2,2-2s2,0.896,2,2v0.994C4,51.438,3.104,52.334,2,52.334z M58,47.45c-1.104,0-2-0.896-2-2v-0.995  c0-1.104,0.896-2,2-2s2,0.896,2,2v0.995C60,46.555,59.104,47.45,58,47.45z M2,45.373c-1.104,0-2-0.896-2-2v-0.994  c0-1.104,0.896-2,2-2s2,0.896,2,2v0.994C4,44.478,3.104,45.373,2,45.373z M58,40.489c-1.104,0-2-0.896-2-2v-0.995  c0-1.104,0.896-2,2-2s2,0.896,2,2v0.995C60,39.594,59.104,40.489,58,40.489z M2,38.412c-1.104,0-2-0.896-2-2v-0.994  c0-1.104,0.896-2,2-2s2,0.896,2,2v0.994C4,37.517,3.104,38.412,2,38.412z M58,33.528c-1.104,0-2-0.896-2-2v-0.995  c0-1.104,0.896-2,2-2s2,0.896,2,2v0.995C60,32.633,59.104,33.528,58,33.528z M2,31.451c-1.104,0-2-0.896-2-2v-0.994  c0-1.104,0.896-2,2-2s2,0.896,2,2v0.994C4,30.556,3.104,31.451,2,31.451z M58,26.567c-1.104,0-2-0.896-2-2v-0.994  c0-1.104,0.896-2,2-2s2,0.896,2,2v0.994C60,25.672,59.104,26.567,58,26.567z M2,24.49c-1.104,0-2-0.896-2-2v-0.994  c0-1.104,0.896-2,2-2s2,0.896,2,2v0.994C4,23.595,3.104,24.49,2,24.49z M58,19.606c-1.104,0-2-0.896-2-2v-0.994c0-1.104,0.896-2,2-2  s2,0.896,2,2v0.994C60,18.711,59.104,19.606,58,19.606z M2,17.529c-1.104,0-2-0.896-2-2v-0.994c0-1.104,0.896-2,2-2s2,0.896,2,2  v0.994C4,16.634,3.104,17.529,2,17.529z M58,12.646c-1.104,0-2-0.896-2-2V9.651c0-1.104,0.896-2,2-2s2,0.896,2,2v0.994  C60,11.75,59.104,12.646,58,12.646z M2,10.568c-1.104,0-2-0.896-2-2V7.574c0-1.104,0.896-2,2-2s2,0.896,2,2v0.994  C4,9.673,3.104,10.568,2,10.568z M58,5.685c-1.104,0-2-0.896-2-2V2.713c0-1.104,0.896-2.012,2-2.012s2,0.885,2,1.989v0.994  C60,4.789,59.104,5.685,58,5.685z M52.418,4h-0.994c-1.104,0-2-0.896-2-2s0.896-2,2-2h0.994c1.104,0,2,0.896,2,2S53.522,4,52.418,4z   M45.457,4h-0.994c-1.104,0-2-0.896-2-2s0.896-2,2-2h0.994c1.104,0,2,0.896,2,2S46.562,4,45.457,4z M38.496,4h-0.994  c-1.104,0-2-0.896-2-2s0.896-2,2-2h0.994c1.104,0,2,0.896,2,2S39.601,4,38.496,4z M31.535,4h-0.994c-1.104,0-2-0.896-2-2  s0.896-2,2-2h0.994c1.104,0,2,0.896,2,2S32.64,4,31.535,4z M24.575,4H23.58c-1.104,0-2-0.896-2-2s0.896-2,2-2h0.995  c1.104,0,2,0.896,2,2S25.68,4,24.575,4z M17.614,4h-0.995c-1.104,0-2-0.896-2-2s0.896-2,2-2h0.995c1.104,0,2,0.896,2,2  S18.719,4,17.614,4z M10.653,4H9.658c-1.104,0-2-0.896-2-2s0.896-2,2-2h0.995c1.104,0,2,0.896,2,2S11.758,4,10.653,4z M3.692,4  H2.713C1.608,4,0.705,3.104,0.705,2s0.889-2,1.993-2h0.994c1.104,0,2,0.896,2,2S4.797,4,3.692,4z" id="svg_1" class="" fill-opacity="1" fill="#b59f5b"/><g id="svg_2">
</g><g id="svg_3">
</g><g id="svg_4">
</g><g id="svg_5">
</g><g id="svg_6">
</g><g id="svg_7">
</g><g id="svg_8">
</g><g id="svg_9">
</g><g id="svg_10">
</g><g id="svg_11">
</g><g id="svg_12">
</g><g id="svg_13">
</g><g id="svg_14">
</g><g id="svg_15">
</g><g id="svg_16">
</g></g></svg>