<svg xmlns="http://www.w3.org/2000/svg" aria-label="Telegram" role="img" width="512" height="512" style=""><rect id="backgroundrect" width="100%" height="100%" x="0" y="0" fill="none" stroke="none"/><g class="currentLayer" style=""><title>Layer 1</title><rect width="512" height="512" rx="15%" fill="#b59f5b" id="svg_1" class="" fill-opacity="1"/><path fill="#c8daea" d="M199 404c-11 0-10-4-13-14l-32-105 245-144" id="svg_2"/><path fill="#a9c9dd" d="M199 404c7 0 11-4 16-8l45-43-56-34" id="svg_3"/><path fill="#f6fbfe" d="M204 319l135 99c14 9 26 4 30-14l55-258c5-22-9-32-24-25L79 245c-21 8-21 21-4 26l83 26 190-121c9-5 17-3 11 4" id="svg_4"/></g></svg>