<svg xmlns="http://www.w3.org/2000/svg" width="32" height="24" fill="none" style=""><rect id="backgroundrect" width="100%" height="100%" x="0" y="0" fill="none" stroke="none" class="" style=""/>


<g class="currentLayer" style=""><title>Layer 1</title><path d="M29.333333492279053,8.93137 C29.333333492279053,8.32555 29.333333492279053,8.02265 29.21353349227905,7.88238 C29.109633492279052,7.76068 28.953633492279053,7.69609 28.79413349227905,7.7086500000000004 C28.610233492279054,7.72312 28.396033492279052,7.93731 27.967633492279052,8.36569 L24.333333492279053,12 L27.967633492279052,15.6343 C28.396033492279052,16.0627 28.610233492279054,16.2769 28.79413349227905,16.2914 C28.953633492279053,16.3039 29.109633492279052,16.2393 29.21353349227905,16.1176 C29.333333492279053,15.9774 29.333333492279053,15.6744 29.333333492279053,15.0686 V8.93137 z" stroke="#ffffff" stroke-width="2" stroke-linecap="round" stroke-linejoin="round" id="svg_1" class="selected" stroke-opacity="1"/><path d="M9.333333492279053,9.8 C9.333333492279053,8.11984 9.333333492279053,7.27976 9.660313492279053,6.6380300000000005 C9.947933492279052,6.07354 10.406873492279052,5.6146 10.971363492279053,5.32698 C11.613093492279052,5 12.453173492279053,5 14.133333492279053,5 H19.533333492279052 C21.213533492279055,5 22.05353349227905,5 22.695333492279055,5.32698 C23.259833492279054,5.6146 23.718733492279053,6.07354 24.006333492279055,6.6380300000000005 C24.333333492279053,7.27976 24.333333492279053,8.11984 24.333333492279053,9.8 V14.2 C24.333333492279053,15.8802 24.333333492279053,16.7202 24.006333492279055,17.362 C23.718733492279053,17.9265 23.259833492279054,18.3854 22.695333492279055,18.673000000000002 C22.05353349227905,19 21.213533492279055,19 19.533333492279052,19 H14.133333492279053 C12.453173492279053,19 11.613093492279052,19 10.971363492279053,18.673000000000002 C10.406873492279052,18.3854 9.947933492279052,17.9265 9.660313492279053,17.362 C9.333333492279053,16.7202 9.333333492279053,15.8802 9.333333492279053,14.2 V9.8 z" stroke="#ffffff" stroke-width="2" stroke-linecap="round" stroke-linejoin="round" id="svg_2" class="selected" stroke-opacity="1"/></g></svg>