<svg xmlns="http://www.w3.org/2000/svg" width="541.4074096679688" height="422.370361328125" style=""><rect id="backgroundrect" width="100%" height="100%" x="0" y="0" fill="none" stroke="none"/><g class="currentLayer" style=""><title>Layer 1</title><path fill="#c1caca" d="M29.11111068725586,382.8888931274414 l36.35,-330.4 c6.728,107.62 4.086,231.82 35.556,295.67 c11.205,-84.926 15.707,-168.18 10.562,-249.01 c15.225,71.69 35.543,141.68 39.468,217.14 c7.3950000000000005,-55.935 12.667,-111.52 31.798000000000002,-169.41 c-0.7600000000000001,65.19 -17.16,124.9 12.677,157.47 c14.433,-51.01 28.992,-101.9 31.46,-164.88 c21.27,61.862 18.342,135.82 24.948,205.02 c8.417,-68.06 15.28,-257.84 46.907,-318.17 c-3.11,124.98 -3.862,223.94 27.398,274.23 c30.897,-38.673 33.566,-114.44 34.28,-186.34 c21.812,61.75 36.457,132.1 37.857,218.34 c8.626,-71.955 18.667,-143.91 43.39,-215.86 c-5.748,88.29 -1.284,156.95 19.525,194.17 c13.76,-55.55 25.504,-111.1 29.12,-166.66 c18.42,82.78 13,159.59 16.706,238.69 z" id="svg_1" class="selected" fill-opacity="1"/></g></svg>